{
  "asset": { "version": "2.0", "generator": "solo-gen" },
  "scene": 0,
  "scenes": [ { "nodes": [0] } ],
  "nodes": [ { "mesh": 0, "name": "Sphere" } ],
  "meshes": [ { "primitives": [ { "attributes": { "POSITION": 0, "NORMAL": 1 }, "indices": 2 } ] } ],
  "accessors": [
    { "bufferView": 0, "componentType": 5126, "count": 609, "type": "VEC3",
      "min": [-0.5, -0.5, -0.5], "max": [0.5, 0.5, 0.5] },
    { "bufferView": 1, "componentType": 5126, "count": 609, "type": "VEC3" },
    { "bufferView": 2, "componentType": 5123, "count": 3360, "type": "SCALAR" }
  ],
  "bufferViews": [
    { "buffer": 0, "byteOffset": 0, "byteLength": 7308 },
    { "buffer": 0, "byteOffset": 7308, "byteLength": 7308 },
    { "buffer": 0, "byteOffset": 14616, "byteLength": 6720 }
  ],
  "buffers": [ { "byteLength": 21336, "uri": "data:application/octet-stream;base64," } ]
}